<svg xmlns="http://www.w3.org/2000/svg" viewBox="0 0 97.615 89.482">
  <defs>
    <style>
      .cls-1 {
        fill: #fff;
      }
    </style>
  </defs>
  <path id="iconmonstr-speech-bubble-26" class="cls-1" d="M40.672,9.142c17.94,0,32.537,11.587,32.537,25.827,0,12.344-12.319,25.668-32.232,25.668a58.057,58.057,0,0,1-15.122-2.282c-3.929,2.412-5.108,3.307-12.226,5.584a35.3,35.3,0,0,0,1.346-12.95c-3.4-4.071-6.841-8.415-6.841-16.021,0-14.239,14.6-25.827,32.537-25.827Zm0-8.142C19.193,1,0,15.341,0,34.969a29.96,29.96,0,0,0,6.935,19.1c.191,6.211-3.461,15.122-6.756,21.6,8.818-1.59,21.361-5.117,27.043-8.6a57.815,57.815,0,0,0,13.755,1.712c24.009,0,40.367-16.423,40.367-33.81C81.343,15.235,62.02,1,40.672,1ZM87.587,46.447a37.536,37.536,0,0,1-2.444,5.759c6.821,5.133,9.18,13.121,1.887,21.82a23.576,23.576,0,0,0,.561,7.585A24.214,24.214,0,0,1,80.819,78.3c-8.651,2.111-17.346,2.831-24.765-3.477a54.834,54.834,0,0,1-7.077,1.48c6.154,7.634,17.481,11.783,30.817,8.541,3.717,2.282,11.929,4.584,17.7,5.633-2.156-4.25-4.543-10.083-4.425-14.15,7.138-8.533,6.276-22.109-5.483-29.886Zm-61.15-15.3A4.356,4.356,0,1,0,30.793,35.5,4.356,4.356,0,0,0,26.437,31.142Zm14.235,0A4.356,4.356,0,1,0,45.028,35.5,4.356,4.356,0,0,0,40.672,31.142Zm14.235,0A4.356,4.356,0,1,0,59.263,35.5,4.356,4.356,0,0,0,54.907,31.142Z" transform="translate(0 -1)"/>
</svg>
