<svg xmlns="http://www.w3.org/2000/svg" viewBox="0 0 120.975 80.65">
  <defs>
    <style>
      .cls-1 {
        fill: #fff;
      }
    </style>
  </defs>
  <path id="iconmonstr-user-22" class="cls-1" d="M51.006,64.81c11.558-2.672,22.315-5.01,17.108-14.85C52.251,20.014,63.9,4,80.655,4,97.732,4,109.1,20.629,93.2,49.965c-5.368,9.9,5.792,12.234,17.1,14.85,10.006,2.309,10.676,7.2,10.676,15.661l-.015,4.174h-6.7c0-10.53.418-11.931-6.18-13.453C98.5,68.989,89.456,66.9,86.149,59.583c-1.2-2.672-1.991-7.067,1.139-12.818C94.2,34,95.953,22.943,92.072,16.435c-4.547-7.647-18.232-7.606-22.743-.111-3.871,6.417-2.147,17.536,4.718,30.5,3.06,5.777,2.253,10.162,1.038,12.818-3.327,7.284-12.46,9.391-22.128,11.619-6.311,1.462-5.908,2.964-5.908,13.393H40.34c0-11.069-.887-17.168,10.666-19.84ZM.01,84.65h6.7c0-9.668-.938-6.981,9.194-9.945,5.111-1.487,9.628-3.644,11.674-8.125,1.069-2.334,1.789-6.15-.817-11.074-4.8-9.063-6.145-17.007-3.589-21.246,2.757-4.582,11.442-4.577,14.209.076,4.713,7.9-4,20.072-5.141,25.112h7.037c2.218-5.041,6.079-11.13,6.079-19.658,0-10.132-6.613-15.626-15.112-15.626-12.566,0-21.307,12.012-9.406,34.473,3.9,7.379-4.164,9.134-12.828,11.135C.5,71.509,0,75.173,0,81.535L.01,84.65Z" transform="translate(0 -4)"/>
</svg>
