<svg id="Group_2316" data-name="Group 2316" xmlns="http://www.w3.org/2000/svg" viewBox="0 0 15 15">
  <defs>
    <style>
      .cls-1 {
        fill: #fff;
      }
    </style>
  </defs>
  <path id="Path_18934" data-name="Path 18934" class="cls-1" d="M22.768,4.34l-.393.393a.36.36,0,0,1-.5,0L20.951,3.8a.34.34,0,0,0-.244-.108H19.038a.347.347,0,0,0-.244.6L20.8,6.293l.312.312.882.882.312.312.705.705.312.312.882.882.312.312,1.18,1.18a.34.34,0,0,0,.244.108h1.682a.347.347,0,0,0,.244-.6L26.1,8.938a.36.36,0,0,1,0-.5l.393-.393a.36.36,0,0,1,.5,0l2.6,2.6a.352.352,0,0,0,.57-.095,7.514,7.514,0,0,0-1.18-7.975.347.347,0,0,0-.61.231V5.371a.34.34,0,0,1-.108.244L26.742,7.188,26.43,7.5l-.882.882-.312.312-.461.461a.36.36,0,0,1-.5,0l-.393-.393a.36.36,0,0,1,0-.5l.461-.461.312-.312.882-.882.312-.312,1.18-1.18a.34.34,0,0,0,.108-.244V3.214a.347.347,0,0,0-.6-.244L24.531,4.977l-.312.312-.882.882-.325.312-.461.461a.36.36,0,0,1-.5,0l-.393-.393a.36.36,0,0,1,0-.5l.461-.461.312-.312.882-.882.312-.312L26.5,1.221A.354.354,0,0,0,26.4.651a7.514,7.514,0,0,0-7.975,1.18.348.348,0,0,0,.231.61h2.563a.34.34,0,0,1,.244.108l1.288,1.288A.348.348,0,0,1,22.768,4.34Z" transform="translate(-15.824)"/>
  <path id="Path_18935" data-name="Path 18935" class="cls-1" d="M7.812,37.82,7.5,37.508l-.882-.882-.312-.312L5.6,35.61,5.289,35.3l-.882-.882-.325-.325L1.221,31.229a.352.352,0,0,0-.57.095A7.593,7.593,0,0,0,0,34.4a7.488,7.488,0,0,0,1.831,4.91.347.347,0,0,0,.61-.231V36.5a.34.34,0,0,1,.108-.244l1.288-1.288a.36.36,0,0,1,.5,0l.393.393a.36.36,0,0,1,0,.5l-.936.909a.34.34,0,0,0-.108.244V38.7a.347.347,0,0,0,.6.244l1.763-1.763a.36.36,0,0,1,.5,0l.393.393a.36.36,0,0,1,0,.5l-2.6,2.6a.352.352,0,0,0,.095.57,7.514,7.514,0,0,0,7.975-1.18.347.347,0,0,0-.231-.61H9.6a.34.34,0,0,1-.244-.109Z" transform="translate(0 -26.903)"/>
</svg>
