<?xml version="1.0" standalone="no"?>
<!DOCTYPE svg PUBLIC "-//W3C//DTD SVG 20010904//EN"
 "http://www.w3.org/TR/2001/REC-SVG-20010904/DTD/svg10.dtd">
<svg version="1.0" xmlns="http://www.w3.org/2000/svg"
 width="70.000000pt" height="70.000000pt" viewBox="0 0 70.000000 70.000000"
 preserveAspectRatio="xMidYMid meet">
<metadata>
Created by potrace 1.11, written by Peter Selinger 2001-2013
</metadata>
<g transform="translate(0.000000,70.000000) scale(0.100000,-0.100000)"
fill="#000000" stroke="none">
<path d="M238 681 c-71 -28 -119 -61 -116 -80 3 -13 16 -16 71 -16 64 0 68 -2
104 -37 31 -31 35 -39 24 -52 -18 -22 -28 -20 -63 9 -22 18 -41 25 -73 25 -24
0 -47 -4 -50 -10 -3 -5 70 -86 162 -180 l168 -170 48 1 c26 1 50 6 53 11 3 4
-15 30 -40 56 -50 54 -54 63 -30 82 13 12 25 4 82 -53 37 -37 73 -67 79 -67
22 0 46 108 40 178 -6 81 -61 197 -92 197 -18 0 -20 -7 -20 -68 l0 -67 -88
-88 c-72 -72 -90 -85 -104 -76 -9 6 -18 15 -20 20 -2 5 33 46 77 92 75 78 80
86 80 127 0 26 -5 45 -13 48 -8 3 -55 -37 -112 -94 -54 -55 -103 -98 -109 -96
-5 2 -14 11 -20 20 -9 14 9 36 107 135 64 64 117 122 117 129 0 36 -186 53
-262 24z"/>
<path d="M14 443 c-23 -79 -14 -169 26 -250 35 -70 69 -100 71 -61 0 13 2 47
3 76 1 49 5 57 39 89 37 33 39 34 58 17 19 -17 19 -18 -11 -49 -23 -24 -30
-40 -30 -70 0 -73 13 -76 73 -17 l53 53 19 -21 c19 -21 18 -21 -48 -88 -37
-37 -67 -73 -67 -79 0 -20 99 -43 172 -40 95 5 234 75 204 104 -3 3 -35 7 -72
8 l-66 2 -192 192 c-105 105 -197 191 -203 191 -7 0 -20 -26 -29 -57z"/>
</g>
</svg>
