<svg xmlns="http://www.w3.org/2000/svg" viewBox="0 0 268.667 55">
  <defs>
    <style>
      .cls-1 {
        fill: #fff;
      }

      .cls-2 {
        fill: #fbf5ee;
        font-size: 18px;
        font-family: SegoeUI, Segoe UI;
        letter-spacing: 0.2em;
      }
    </style>
  </defs>
  <g id="Group_2379" data-name="Group 2379" transform="translate(-173.333 -47.333)">
    <g id="Group_2097" data-name="Group 2097" transform="translate(173.333 47.333)">
      <path id="Path_18934" data-name="Path 18934" class="cls-1" d="M34.664,15.913l-1.442,1.442a1.321,1.321,0,0,1-1.84,0L28,13.924a1.245,1.245,0,0,0-.9-.4H20.989a1.271,1.271,0,0,0-.9,2.188l7.36,7.36L28.6,24.218,31.83,27.45l1.144,1.144,2.586,2.586L36.7,32.324l3.232,3.232L41.079,36.7l4.326,4.326a1.245,1.245,0,0,0,.9.4h6.166a1.271,1.271,0,0,0,.9-2.188L46.9,32.771a1.321,1.321,0,0,1,0-1.84l1.442-1.442a1.321,1.321,0,0,1,1.84,0l9.548,9.548a1.291,1.291,0,0,0,2.089-.348A27.55,27.55,0,0,0,57.49,9.448a1.273,1.273,0,0,0-2.238.845v9.4a1.245,1.245,0,0,1-.4.9l-5.619,5.769L48.091,27.5l-3.232,3.232-1.144,1.144-1.691,1.691a1.321,1.321,0,0,1-1.84,0l-1.442-1.442a1.321,1.321,0,0,1,0-1.84l1.691-1.691,1.144-1.144,3.232-3.232,1.144-1.144,4.326-4.326a1.245,1.245,0,0,0,.4-.9V11.786a1.271,1.271,0,0,0-2.188-.9l-7.36,7.36-1.144,1.144-3.232,3.232L35.559,23.77l-1.691,1.691a1.321,1.321,0,0,1-1.84,0l-1.442-1.442a1.321,1.321,0,0,1,0-1.84l1.691-1.691,1.144-1.144,3.232-3.232L37.8,14.968,48.34,4.476a1.3,1.3,0,0,0-.348-2.089A27.55,27.55,0,0,0,18.751,6.713,1.276,1.276,0,0,0,19.6,8.951H29a1.245,1.245,0,0,1,.9.4l4.724,4.724A1.276,1.276,0,0,1,34.664,15.913Z" transform="translate(-9.203)"/>
      <path id="Path_18935" data-name="Path 18935" class="cls-1" d="M28.644,55.678,27.5,54.534,24.268,51.3l-1.144-1.144-2.586-2.586-1.144-1.144L16.162,43.2,14.968,42,4.476,31.51a1.291,1.291,0,0,0-2.089.348A27.842,27.842,0,0,0,0,43.146a27.456,27.456,0,0,0,6.713,18A1.273,1.273,0,0,0,8.951,60.3V50.854a1.245,1.245,0,0,1,.4-.9l4.724-4.724a1.321,1.321,0,0,1,1.84,0l1.442,1.442a1.321,1.321,0,0,1,0,1.84l-3.431,3.332a1.245,1.245,0,0,0-.4.9V58.91a1.271,1.271,0,0,0,2.188.9l6.465-6.465a1.321,1.321,0,0,1,1.84,0l1.442,1.442a1.321,1.321,0,0,1,0,1.84l-9.548,9.548a1.291,1.291,0,0,0,.348,2.089A27.55,27.55,0,0,0,45.5,63.933a1.273,1.273,0,0,0-.845-2.238H35.208a1.245,1.245,0,0,1-.9-.4Z" transform="translate(0 -15.646)"/>
    </g>
    <text id="GLOBAL_XCHANGE" data-name="GLOBAL XCHANGE" class="cls-2" transform="translate(245 80)"><tspan x="0" y="0">GLOBAL XCHANGE</tspan></text>
  </g>
</svg>
