<svg xmlns="http://www.w3.org/2000/svg" viewBox="0 0 3940.844 1974.951">
  <defs>
    <style>
      .cls-1 {
        opacity: 0.03;
      }

      .cls-2 {
        fill: #69bae8;
      }
    </style>
  </defs>
  <g id="Group_2355" data-name="Group 2355" class="cls-1">
    <path id="Path_19116" data-name="Path 19116" class="cls-2" d="M0,215.566,5.436,221H28.99l70.663-32.614,25.366-3.624,32.614-19.931h47.109l25.366-16.307,32.614,7.248,32.614,3.624,16.307,14.5,19.931,10.871,10.871,18.119-3.624,10.871,3.624,12.683-9.059,12.683V257.24l-1.812,14.5,23.554,21.743,7.248,16.307V327.9l-9.059,12.683-9.059-7.247H326.139L320.7,353.269,308.02,371.388l-27.178,27.178-5.436,27.178-21.743,16.307,1.812,21.743-5.436,10.871,9.059,10.871v14.5l7.248,21.743-3.624,19.931,19.931,9.059,10.871,14.5L289.9,583.378l5.436,18.119,9.059,18.119-1.812,16.307,5.436,14.5,10.871,7.247,7.247,9.059-1.812,16.307,12.683,19.931,16.307,7.247-5.436-18.119-9.059-23.555L335.2,641.359l-18.119-32.614-3.624-23.554,9.059-10.871,10.871,5.436,3.624,18.119,3.624,19.931,21.743,32.614v14.495l28.99,30.8,10.871,19.931v14.5l-7.247,19.931,21.743,27.178L489.208,815.3l21.743,7.247L529.07,815.3l12.683-3.624,16.307,10.871,10.871,16.307,27.178,16.307h34.426v14.495l16.307,14.5,5.436,19.931,12.683,10.871,18.119,12.683,10.871,3.624,14.5,10.871h18.119l7.248-12.683,10.871-3.624,10.871,5.436-5.436,10.871L755.555,953l10.871,25.366-7.247,25.366-16.307,21.743-19.931,28.99-12.683,27.178,1.812,10.871,10.871,5.436-1.812,9.059-10.871,10.871-3.624,9.059,7.248,18.119,9.059,9.059,16.307,16.307,10.871,27.178,7.248,21.743,12.683,16.307,12.683,16.307L799.04,1288.2l25.366,10.871,30.8,18.119,10.871,12.683,10.871,18.119,5.436,19.931,3.624,14.5v10.871l-5.436,12.683-3.624,14.5,7.248,12.683v14.495l-3.624,14.5v25.366l3.624,18.119s0,12.683,1.812,16.307,5.436,19.931,5.436,19.931l3.624,19.931-3.624,21.743-3.624,21.742,1.812,27.178,10.871,5.436v23.555l5.436,14.495,16.307,12.683v18.119l19.931,19.931-3.624,14.495-7.248,9.059-7.248,5.436v7.248l12.683,5.436,9.059,10.871,7.248,21.742,16.307,23.554,10.871,9.059,9.059,12.683,7.247,5.436,9.059-5.436,9.059,5.436h10.871l9.059-9.059,5.436-7.248-5.436-7.248-3.624-9.059,3.624-12.683,5.436-14.5,5.436-9.059v-16.307l-14.495-7.248-5.436-9.059-1.812-9.059,5.436-5.436,7.248-7.247,1.812-9.059-5.436-3.624v-3.624l12.683-9.059v-5.436l-9.059-3.624-9.059-5.436-3.624-3.624-1.812-10.871,9.059-3.624,7.248,7.247,10.871,3.624,5.436-10.871v-10.871l-5.436-7.248v-9.059h32.614l9.059-3.624,16.307-12.683v-14.5l-5.436-14.5-9.059-10.871-12.683-10.871h16.307l14.495,7.248,14.5,3.624,12.683-7.248,10.871-16.307,10.871-25.366,12.683-16.307,1.812-16.307,5.436-12.683,7.248-14.5,3.624-12.683-9.059-19.931,3.624-10.871,18.119-10.871,18.119-7.248,12.683-12.683H1250.2l3.624,7.248h10.871l7.248-10.871,9.059-3.624,18.119-47.109,3.624-27.178,5.436-28.99-5.436-18.119-1.812-16.307,10.871-14.5,9.059-1.812,12.683-25.366,12.683-14.5,10.871-9.059,3.624-23.554v-12.683l-3.624-9.059-5.436-10.871-21.743-5.436-16.307-7.248-12.683-14.5-3.624-10.871-19.931-1.812-18.119-3.624h-30.8l-9.059,5.436-9.059-1.812,7.248-7.248-1.812-7.248-32.614-14.5-9.059,1.812-9.059,10.871-16.307,5.436-12.683-5.436-10.871-3.624-7.248,1.812-5.436,3.624V1074.4l10.871-14.495,9.059-5.436,5.436-7.248,5.436-7.248-1.812-10.871-7.248-1.812-3.624-14.495-3.624-18.119L1098,969.309l-16.307-3.624H1069.01l-3.624,7.247-7.248-3.624-14.5-5.436-23.554-18.119-7.248-16.307-19.931-10.871-19.931-10.871-25.366-7.248-5.436,3.624L929.5,900.458l-3.624-1.812-12.683-1.812-12.683-3.624-7.248-5.436-9.059-7.247-10.871-7.248-9.059,5.436-9.059,7.247-3.624,12.683,5.436,10.871-5.436,7.248-9.059-7.248,1.812-23.555,5.436-9.059,3.624-9.059-18.119-1.812-12.683,16.307-14.5,1.812-16.307,10.871-3.624,14.5L777.3,922.2l-9.059,1.812-16.307-12.683H735.624l-16.307,5.436-16.307,1.812-10.871-9.059L681.268,891.4l-1.812-10.871,3.624-5.436V856.973l5.436-1.812L686.7,838.854l3.624-5.436-1.812-12.683L677.644,815.3l-7.248-3.624-19.931,1.812L625.1,815.3l7.247-23.555,16.307-36.238,7.248-18.119-3.624-9.059-23.555-3.624-5.436,5.436H610.6l-9.059,5.436-1.812,16.307-14.5,9.059-18.119,7.248L549,771.814l-18.119-7.248L520.01,751.884l-7.248-23.555-1.812-12.683,9.059-18.119,9.059-32.614,5.436-23.555,7.248-5.436,43.485-25.366,10.871-7.248,12.683,1.812,9.059,9.059H625.1l12.683,1.812,1.812,3.624h9.059l5.436-10.871,3.624-10.871,14.495-3.624,10.871,3.624,12.683,3.624,7.248,9.059h14.5l1.812-5.436,9.059,3.624,10.871,9.059-1.812,10.871-7.248,1.812L732,646.794l3.624,5.436,3.624,12.683,3.624,9.059,14.495,1.812,5.436-10.871,5.436-10.871v-9.059l-7.247-7.247,1.812-21.743-5.436-7.248,1.812-12.683,3.624-12.683,14.5-14.495,25.366-16.307,23.554-12.683,21.743-10.871,7.247-12.683,1.812-9.059,1.812-7.248-3.624-7.248,1.812-9.059,7.247-3.624,3.624,7.248,7.248-1.812,1.812-12.683,23.555-18.119h5.436l3.624-5.436,10.871-7.248,14.5-3.624,21.743-7.248,7.248-5.436V418.5l3.624-3.624L971.169,404l43.485-19.931,12.683-1.812,16.307-9.059,12.683-3.624,1.812,7.248-10.871,3.624-12.683,5.436-7.248,7.247,3.624,7.248h9.059l14.5-7.248,12.683-3.624,10.871-5.436,16.307-5.436,5.436-5.436,7.248-7.247-3.624-3.624h-16.307l-5.436,5.436-7.247-3.624-10.871-3.624-7.248-12.683,1.812-10.871,7.248-5.436,7.248-9.059v-5.436h-21.743l-12.683,3.624-5.436,3.624L1020.09,327.9l-12.683-1.812,3.624-7.247,16.307-9.059,16.307-5.436,18.119-5.436h30.8l3.624,3.624,18.119-1.812,3.624-3.624,14.495-1.812,3.624-3.624h9.059l7.248-5.436,19.931-7.248,21.743-7.247,5.436-10.871,1.812-7.248-5.436-10.871-10.871-3.624-16.307,1.812-3.624-16.307-5.436-5.436-3.624-9.059,1.812-7.248,3.624-9.059-7.248-3.624,1.812-19.931-3.624-14.5h-7.248l-9.059,5.436-7.248,9.059-10.871,7.247-12.683,7.248-10.871-5.436-3.624-10.871,5.436-5.436,3.624-10.871-3.624-5.436-18.119-10.871-9.059-5.436H1052.7l-9.059-3.624h-14.495l-3.624,3.624-12.683,5.436v12.683l-7.247,14.5-12.683,3.624-9.059,7.248-1.812,10.871,7.248,9.059-5.436,9.059-5.436,3.624v10.871l-21.742,9.059L940.367,235.5,929.5,246.368l-5.436,16.307-5.436,16.307-18.119,3.624-10.871-12.683,1.812-14.5,9.059-9.059,5.436-10.871L895.07,228.25,869.7,224.626l-23.554-16.307L833.466,204.7h-9.059l-14.5-9.059,1.812-10.871-9.059-5.436V168.457l18.119-12.683L864.268,128.6h16.307l7.248-7.248V110.477h18.119l12.683-3.624h16.307l7.248-7.248-1.812-9.059-3.624-3.624,7.248-7.248,7.248,7.248,14.495-1.812,9.059-10.871,30.8,1.812,16.307-5.436,10.871-7.248,5.436-9.059h9.059l3.624-9.059-1.812-9.059-10.871-3.624h-19.931l-7.248,7.248L998.347,50.685,991.1,54.309l-3.624,3.624L976.6,59.745l-1.812-9.059,5.436-5.436,1.812-9.059-10.871-1.812H956.674V23.507l3.624-5.436,1.812-9.059L953.05,7.2,942.179,9.012l-10.871,7.248-14.495,9.059v5.436l9.059,1.812V43.438l-9.059,5.436-10.871,1.812L896.882,52.5,886.01,57.933l-9.059,3.624L864.268,52.5l-16.307-1.812-5.436,5.436L824.406,52.5l-14.5-5.436H797.228l-12.683,3.624L771.862,52.5,766.426,65.18,755.555,68.8l-3.624-7.248-9.059-7.248H732l-7.247,7.248-27.178-3.624,3.624-7.248,5.436-1.812V45.25l-21.743-5.436-18.119-7.248L655.9,30.754h-28.99l-5.436,3.624-12.683-7.248H596.109l-7.248,3.624L577.99,27.131H561.683l-7.247,5.436-16.307,1.812H525.446l-3.624,5.436h-28.99L481.961,36.19l-23.554-5.436-18.119-3.624-19.931-1.812-30.8-1.812L366,16.259l-14.5-3.624-21.743,1.812-5.436,3.624-18.119,1.812L293.525,21.7H269.97l-3.624,1.812-19.931,3.624L224.673,38l-21.743,3.624H190.248l-9.059,5.436v9.059l9.059,5.436v5.436l-9.059,5.436-12.683,3.624L157.634,74.24,137.7,76.052l-18.119,3.624-10.871,5.436,1.812,9.059,9.059,1.812,14.5,3.624,14.5-1.812,5.436,1.812-1.812,7.248-10.871,3.624L117.772,114.1l-19.931,1.812L86.97,119.537,70.663,130.408v19.931L59.792,161.21l-9.059,5.436,1.812,7.248,9.059,3.624,16.307,3.624-5.436,7.248Z" transform="translate(0 123.255)"/>
    <path id="Path_19117" data-name="Path 19117" class="cls-2" d="M44.512,60.419,42.7,53.171V45.924L55.383,42.3l3.624,7.248-3.624,3.624-1.812,5.436Z" transform="translate(730.974 724.126)"/>
    <path id="Path_19118" data-name="Path 19118" class="cls-2" d="M47.936,43.5h7.248L57,56.183l5.436,3.624-1.812,9.059H51.559L42.5,61.619V52.559Z" transform="translate(727.55 744.669)"/>
    <path id="Path_19119" data-name="Path 19119" class="cls-2" d="M52.147,59.083,44.9,51.836,50.336,46.4h7.247l9.059,10.871L63.019,60.9Z" transform="translate(768.635 794.313)"/>
    <path id="Path_19120" data-name="Path 19120" class="cls-2" d="M74.138,60.1,63.266,61.907l-7.247,3.624L45.147,69.155,37.9,67.343V58.283l12.683-5.436,7.248-3.624L86.821,45.6l16.307,3.624,23.554,9.059,14.5,9.059,3.624,5.436L159.3,78.214l9.059,1.812,7.248,9.059,1.812,5.436-12.683,1.812-1.812,3.624H150.237l-12.683-3.624H121.247L117.623,90.9l7.248-3.624-5.436-9.059-16.307-5.436L95.88,63.719,85.009,60.1Z" transform="translate(648.803 780.618)"/>
    <path id="Path_19121" data-name="Path 19121" class="cls-2" d="M41.7,51.012,59.819,49.2l5.436,1.812,12.683,7.248v7.247H56.2l-7.248-7.247Z" transform="translate(713.855 842.246)"/>
    <path id="Path_19122" data-name="Path 19122" class="cls-2" d="M44.7,68.231H73.69L75.5,60.983l-5.436-1.812V53.736L80.938,48.3l18.119,3.624H111.74l9.059,5.436,14.5,10.871-1.812,7.247L117.175,77.29,109.928,79.1l-14.5,7.248L84.561,79.1,75.5,75.478l-7.248,5.436H55.571L46.512,79.1Z" transform="translate(765.211 826.839)"/>
    <path id="Path_19123" data-name="Path 19123" class="cls-2" d="M89.478,65H78.607l-7.248,3.624-5.436,1.812L62.3,75.871l9.059,7.248,3.624,3.624,9.059,1.812,5.436-1.812,5.436-3.624L100.35,79.5l1.812-9.059-7.248-1.812Z" transform="translate(1066.502 1112.723)"/>
    <path id="Path_19124" data-name="Path 19124" class="cls-2" d="M48.883,52.209,36.2,39.526,57.943,28.654,76.061,17.783,90.556,6.912S108.675,5.1,110.487,5.1s25.366,5.436,25.366,5.436l18.119,7.248,7.248,7.248L173.9,26.843h12.683l5.436-3.624,9.059-3.624,3.624,5.436v7.248h5.436L219.2,21.407h19.931v7.248l-7.248,9.059-1.812,9.059,7.248,3.624,9.059,5.436v5.436l-21.743,14.5-16.307,3.624H197.457L181.15,73.951l-14.495,1.812-12.683,7.248H121.358l-16.307-5.436L88.745,70.328,81.5,64.892l34.426-1.812,10.871-1.812-1.812-5.436L97.8,57.645l-9.059-5.436,7.248-3.624,10.871-1.812V41.338L94.18,39.526H81.5l-9.059,5.436-14.5,9.059Z" transform="translate(619.701 87.306)"/>
    <path id="Path_19125" data-name="Path 19125" class="cls-2" d="M48.9,18.183H63.4l7.247,7.248,5.436-3.624V14.559l10.871-3.624,9.059-3.624L103.256,5.5h9.059v9.059l-7.248,10.871-3.624,5.436L92.385,34.49l-9.059,3.624L68.831,41.738,63.4,34.49l-9.059-5.436L48.9,25.431Z" transform="translate(837.11 94.154)"/>
    <path id="Path_19126" data-name="Path 19126" class="cls-2" d="M65.383,30.866,52.7,25.431V18.183L65.383,9.124,74.443,5.5H99.809l3.624,7.248L98,21.807,83.5,23.619H70.819Z" transform="translate(902.162 94.154)"/>
    <path id="Path_19127" data-name="Path 19127" class="cls-2" d="M92.261,35.254H75.954L66.9,37.066H57.836L52.4,31.631V20.759l9.059-5.436L72.331,11.7H83.2l12.683,9.059,12.683,3.624-1.812,10.871-3.624,9.059H95.885Z" transform="translate(897.026 200.29)"/>
    <path id="Path_19128" data-name="Path 19128" class="cls-2" d="M101.785,28.178H83.666l-7.248-1.812-7.247,1.812L58.3,22.743V13.683l12.683-3.624,14.5-3.624,9.059-3.624L109.033,1,119.9,6.436,118.092,15.5l-7.247,3.624Z" transform="translate(998.027 17.119)"/>
    <path id="Path_19129" data-name="Path 19129" class="cls-2" d="M81.866,3.8H71l-9.059,9.059L56.5,18.3v9.059H81.866L92.738,34.6h19.931l16.307-1.812,9.059,3.624h12.683l7.247-7.248,10.871-3.624,1.812-5.436L165.213,18.3l-5.436-1.812H116.292l-7.247,3.624L101.8,16.483l-9.059-5.436Z" transform="translate(967.213 65.052)"/>
    <path id="Path_19130" data-name="Path 19130" class="cls-2" d="M98.485,7.612,103.921,5.8h10.871l5.436,7.248h9.059l9.059-5.436,10.871,1.812,9.059,3.624,9.059,7.248,14.5,5.436h18.119l7.248,3.624,7.247,7.248,7.247,5.436h18.119l7.248,5.436,3.624,7.248v7.248l-5.436,3.624,5.436,3.624,21.743,16.307,5.436,9.059-3.624,9.059-5.436,5.436-9.059,3.624-12.683-5.436-12.683-3.624H223.505v7.248l7.247,7.248-1.812,7.248v9.059l-1.812,3.624-7.248,7.248-9.059-3.624-7.248-5.436L192.7,134.444l3.624,5.436,5.436,5.436,7.248,5.436L207.2,158l-12.683,3.624L181.832,158l-10.871-9.059-9.059-3.624-7.248-7.248-3.624-9.059-5.436-5.436-14.5-3.624-3.624,5.436H122.04l-5.436,3.624H105.733l-5.436-5.436-5.436-5.436,7.247-3.624,7.248-1.812,14.495-3.624h10.871l1.812,3.624,14.5,1.812,3.624-7.248,3.624-5.436,16.307-7.248,7.248-1.812,3.624,5.436,7.247,1.812,3.624-1.812h9.059l-1.812-7.248L192.7,87.335,185.456,81.9l-5.436-7.248-7.248-16.307L163.713,51.1l-7.248-3.624H145.594l-9.059,5.436-10.871,1.812L120.228,51.1l-10.871-1.812L100.3,43.85H89.426L83.99,49.285H73.119l-7.248-1.812L55,40.226l1.812-10.871L73.119,18.483l9.059-3.624,7.248-7.248Z" transform="translate(941.535 99.289)"/>
    <path id="Path_19131" data-name="Path 19131" class="cls-2" d="M120.28,22.7c-1.812,0-12.683,3.624-12.683,3.624l-7.248,7.248L93.1,42.631,80.419,46.254,74.983,57.126l-3.624,7.248H62.3v7.247l3.624,3.624H85.854l3.624,3.624L107.6,82.492l10.871-1.812,7.248-5.436h10.871l1.812-3.624h7.248V64.373L138.4,60.75l-7.248-14.5-9.059-1.812-10.871-1.812,1.812-7.248,7.248-7.248Z" transform="translate(1066.502 388.597)"/>
    <path id="Path_19132" data-name="Path 19132" class="cls-2" d="M59.6,56.168V67.04l5.436,1.812h1.812l5.436,1.812v3.624H86.778L92.214,76.1l3.624-5.436,14.5,1.812,5.436,3.624,7.248,1.812v3.624l10.871,1.812L144.758,76.1l10.871-5.436h9.059l3.624-3.624L181,59.792h9.059l3.624-7.248,5.436-5.436h10.871l7.248-5.436h12.683l10.871-5.436h10.871l1.812-3.624h12.683l5.436-7.248h12.683l9.059-5.436,12.683-1.812,10.871-7.248,3.624-1.812,10.871-1.812,3.624-3.624V0H315.075l-3.624,3.624H278.838L255.283,9.059l-30.8-3.624-7.248,3.624H197.3l-7.248,3.624-12.683-1.812L159.253,9.059l-3.624,3.624H135.7l-3.624,5.436,5.436,3.624h19.931l5.436,3.624h27.178V30.8H148.382l-3.624-1.812H126.64l-1.812,3.624-5.436,1.812v7.248L126.64,45.3v5.436l-10.871,1.812-3.624-5.436H95.838l1.812,5.436h10.871l1.812,7.248H94.026L90.4,63.416H77.719L74.1,59.792Z" transform="translate(1020.282)"/>
    <path id="Path_19133" data-name="Path 19133" class="cls-2" d="M122.957,43.485,113.9,47.109H88.531l-9.059,5.436H70.412L68.6,59.792l7.248,12.683L101.214,76.1h41.673l12.683,5.436,10.871,12.683,7.248,16.307V121.4l14.495,7.248,3.624,18.119-3.624,12.683-14.495,14.5L155.57,183l-7.248,19.931,3.624,7.248,1.812,9.059-5.436,7.248-1.812,10.871,7.248,18.119,18.119,16.307L190,277.218l10.871,3.624h9.059l7.248-3.624,7.247-3.624,9.059-14.5,10.871-19.931,9.059-10.871L266.1,217.426l18.119-9.059,21.742-1.812,14.5-3.624,14.5-1.812L354.878,183l14.495-7.248,7.248-5.436H389.3l5.436,3.624h12.683l3.624-3.624h12.683l7.247-5.436,10.871-1.812h27.178v-5.436l-5.435-7.248v-7.248h7.247l3.624,5.436,7.248-3.624h5.435v-5.436l-9.059-10.871-10.871-5.436-9.059-1.812V115.96l14.5-3.624,18.119-7.248,21.742-7.248,9.059-14.5,12.683-10.871,1.812-9.059-3.624-5.436V50.733l18.119-16.307H572.3l7.247-5.436h9.059l5.436-3.624,7.248-5.436V16.307H574.115l-7.247,1.812-14.5-1.812L532.442,9.059,508.887,3.624,488.957,0H467.214L445.472,7.248,427.353,5.436,411.046,1.812,392.927,3.624l-21.742,7.248L347.63,12.683,324.075,14.5l-16.307,3.624H289.65l-18.119-1.812-32.614-3.624L218.986,14.5l-18.119,1.812-27.178,7.248-12.683,9.059L139.263,45.3Z" transform="translate(1174.351)"/>
    <path id="Path_19134" data-name="Path 19134" class="cls-2" d="M89.8,39.99l10.871-16.307L120.6,20.059l12.683-3.624,10.871,1.812,9.059-1.812L165.9,11l14.5,1.812,7.247,7.248,3.624,10.871-12.683,3.624L158.651,41.8l-12.683,3.624-9.059,3.624-9.059,5.436-5.436-3.624-9.059-5.436H98.859Z" transform="translate(1537.27 188.307)"/>
    <path id="Path_19135" data-name="Path 19135" class="cls-2" d="M126.6,24.536l-9.059,7.248L110.3,33.6,95.8,39.031l7.248,7.248,7.248,7.248-7.248,5.436-3.624,9.059L106.671,80.7l16.307-5.436,10.871-7.247,14.5-1.812,1.812-18.119,7.248-9.059V26.347L150.157,19.1Z" transform="translate(1639.983 326.969)"/>
    <path id="Path_19136" data-name="Path 19136" class="cls-2" d="M127.99,17.1,129.8,29.783h14.5l-1.812,7.248-9.059,3.624V47.9l12.683,1.812,10.871,14.5,5.436,10.871,3.624,14.5,19.931,1.812v7.247l-12.683,9.059-1.812,5.436,7.248,1.812-1.812,7.247L151.545,124l-14.5,3.624-18.119,3.624-18.119,5.436S99,133.06,99,131.249s9.059-5.436,9.059-5.436l14.5-1.812,9.059-3.624-3.624-7.247-12.683-1.812-9.059-3.624,3.624-5.436L113.5,93.2s5.436-3.624,7.248-3.624l9.059-1.812,3.624-9.059-1.812-7.248-9.059-3.624L113.5,64.209l-3.624-9.059-3.624-10.871,3.624-10.871,5.436-7.248Z" transform="translate(1694.763 292.732)"/>
    <path id="Path_19137" data-name="Path 19137" class="cls-2" d="M2326.174,144.827l-18.119-12.683h-18.119l-21.743-7.248-32.614-10.871h-23.555l-36.238-16.307-30.8-5.436h-65.228l5.436,7.248-7.247,5.436-9.059-3.624-21.743-9.059h-19.931l-21.743,5.436-21.742,1.812-38.05-12.683-28.99-3.624H1898.57c-1.812,0-43.485-3.624-43.485-3.624l-47.109-12.683L1782.61,61.48h-57.98l9.059,9.059,3.624,9.059-14.495,5.436L1701.075,79.6H1686.58l-19.931,7.248-21.742-3.624L1619.54,57.856l-23.554-7.248h-39.861l-21.742,7.248L1507.2,50.609h-18.119l-18.119,5.436-12.683-5.436-18.119-9.059-21.743,9.059h-19.931l5.436-9.059,14.5-10.871,10.872-10.871-18.119-9.059h-19.931l-25.367-3.624-10.871,7.248-12.683-7.248L1324.2,3.5h-27.178l-5.436,9.059-12.683,1.812-9.059,5.436-16.307-3.624L1228.174,18l-19.931,3.624-18.119,7.248,1.812,9.059-3.624,9.059-16.307-1.812-14.5,3.624L1137.58,59.668,1119.461,70.54h-16.307l-9.06,3.624V85.035L1110.4,95.906l16.307,10.871V119.46l-14.5,16.307-12.683,3.624,7.247-19.931-5.436-10.871-16.307-16.307-9.059-19.931-9.059-9.059L1048.8,56.045l-10.871,3.624-10.871,9.059,3.624,19.931,12.683,7.248,19.931,9.059-3.624,10.871-57.98-14.5-16.307-5.436L972.7,103.154l-16.307,5.436H938.273l-12.683,5.436H914.718l-19.931-5.436-18.119,7.248-19.931,10.871L835,130.332l-5.436-16.307H811.441l-5.436,9.059,5.436,3.624,1.812,10.871H802.381L789.7,143.015l-10.871,3.624V155.7H744.4l3.624,10.871H758.9l3.624,9.059H744.4l-16.307-7.248-10.871-16.307-3.624-7.248-12.683-7.248,3.624-5.436,14.5,1.812,12.683,1.812,10.871,5.436H775.2l10.871-9.059-1.812-9.059-28.99-10.871-25.366-9.059h-28.99l-36.238-14.5-32.614-5.436H592.2L550.53,92.282l-30.8,12.683L507.045,128.52l-16.307,10.871-10.871,14.5L454.5,175.629l-12.683,7.248-25.366,10.871L407.391,201v12.683l3.624,21.743L423.7,246.292h16.307l16.307-3.624,10.871-1.812,10.871,9.059L483.49,262.6l-5.436,12.683-16.307,1.812-1.812-21.743-10.871,5.436-10.871,10.871,3.624,10.871v12.683l3.624,7.248L434.569,307.9l-23.555,1.812-25.366,19.931-16.307,16.307-18.119,16.307-14.5,12.683H320.421l-10.871,7.248H285.995l-1.812,12.683,21.743,7.247L316.8,418.421,314.985,445.6l-7.248,10.871-25.366,1.812-21.742-1.812-27.178-1.812-5.435,10.871-5.436,12.683v25.366L215.332,521.7v25.366l18.119,7.248,10.871,5.436,18.119,9.059L278.747,567l27.178-1.812L329.48,552.5l9.059-23.554,10.871-19.931L376.589,490.9l9.059-7.247-10.871-9.059,9.059-7.248h19.931l10.871,5.436,19.931-5.436,12.683-10.871h21.743l3.624,18.119L496.173,490.9l21.743,10.871,14.5,10.871,5.436,10.871,3.624,23.554,14.5-1.812,5.436-10.871-7.248-18.119,10.871,1.812H575.9l1.812-10.871-21.743-7.247-21.742-10.871L521.54,472.778l-10.871-16.307L499.8,452.847l-1.812-12.683,7.248-3.624,10.871,7.247,5.436,5.436,10.871,3.624,12.683,9.059,9.059,10.871,10.871,1.812,7.248,1.812,7.248,9.059,3.624,9.059,3.624,12.683,3.624,12.683,3.624,10.871,10.871,1.812,5.436,3.624,18.119,1.812-1.812,5.436-16.307,1.812,3.624,7.248,5.436,3.624,1.812,7.248,7.247,9.059,9.059-1.812,5.436-7.248,5.436-9.059-7.247-16.307L637.5,527.134l-1.812-7.248,7.247-3.624,7.248,5.436,3.624-7.248,9.059-5.436L675.55,507.2l9.059,5.436,9.059-3.624,12.683-1.812,3.624,3.624-5.436,5.436-14.5,1.812-7.248-1.812-5.436,5.436,3.624,10.871,10.871,1.812,1.812,18.119,16.307,18.119,18.119,1.812L746.213,567l14.5,5.436,14.5,5.436,18.119-5.436,14.5-3.624,1.812,18.119-3.624,14.495-5.436,14.5-3.624,16.307-1.812,12.683-10.871,5.436H758.9l-18.119-3.624-9.059,5.436L713.6,650.342l-36.238-5.436-18.119-7.248-23.555-12.683-27.178,1.812-9.059,9.059,1.812,18.119L583.144,659.4l-12.683-5.436-19.931-1.812L530.6,628.6l-25.366-7.248L487.114,614.1l-14.5-10.871,7.248-12.683-1.812-12.683-3.624-14.5-5.436-5.436-21.742,5.436L436.381,567l-45.3-5.436L360.282,567l-30.8,10.871L304.114,590.55l-36.238-12.683L251.569,583.3l-5.436,12.683-21.742,10.871-16.307,18.119-9.059,21.743v14.5l-41.673,34.426-21.743,23.554L124.738,744.56,117.49,764.49,97.559,786.233v18.119l9.059,21.743v32.614L97.559,873.2,88.5,889.51l7.248,14.5s-1.812,14.495-1.812,18.119c0,1.812,5.436,19.931,5.436,19.931l16.307,5.436,10.871,14.495,10.871,19.931,5.436,21.743,36.238,32.614,25.366,16.307H226.2l21.742-9.059h18.119l27.178,7.248,23.555-16.307,45.3-12.683,23.555,1.812,14.5,27.178H425.51l18.119,3.624,12.683,21.743-1.812,19.931-3.624,18.119-3.624,25.366,23.554,34.426,10.871,18.119,9.059,30.8,10.871,12.683v32.614l9.059,19.931-18.119,32.614-9.059,25.366-3.624,32.614,14.5,32.614,10.871,16.307,14.5,38.05v28.99l9.059,32.614,12.683,21.742,10.871,21.743,16.307,25.366v27.178l10.871,14.495h23.555l25.366-5.436,21.743,5.436h21.742l30.8-30.8,25.366-18.119,14.5-19.931,12.683-18.119,14.5-7.248v-38.05l23.555-16.307,14.5-21.743v-16.307l-14.5-18.119,23.554-25.366,7.247-21.743,28.99-7.248,21.742-23.555,10.871-19.931-5.436-21.742V1299l5.436-16.307-21.743-36.238-3.624-41.673,21.742-39.861,50.733-56.168,18.119-14.5,23.555-18.119,21.743-38.05,19.931-43.485,12.683-23.554V936.619l-39.861,14.5-39.861,7.247L925.59,947.491l-9.059-16.307-21.742-28.99L867.61,880.451l-10.871-27.178-19.931-25.366-7.248-18.119V788.045l-23.554-34.426-12.683-27.178-14.5-25.366-7.248-12.683,14.5,5.436,7.248-16.307,9.059,16.307,3.624,21.743L835,748.183l10.871,16.307,12.683,27.178,10.871,23.555,16.307,16.307,12.683,19.931,10.871,14.5,5.436,28.99,14.495,27.178,32.614-3.624,23.554-12.683,43.485-12.683,9.059-10.871,9.059-10.871,19.931-9.059,19.931-7.248,27.178-30.8,7.247-16.307,14.5-14.495v-14.5l-18.119-18.119-19.931-9.059-7.248-7.248-3.624-18.119-9.059-3.624-16.307,19.931-14.5,9.059-16.307-3.624-1.812-14.5L1018,728.253l-12.683,9.059-10.871-9.059-5.436-19.931-14.5-23.555-1.812-9.059,3.624-10.871,16.307-3.624,19.931,21.743,3.624,14.495,25.366,14.5,19.931,3.624,18.119-5.436,16.307,1.812,7.247,14.5,5.436,7.247,21.743,7.248,27.178-1.812,21.742,1.812,7.248,3.624,14.5-1.812,10.871-7.248,16.307,1.812,9.059,14.5,10.871,9.059,10.872,9.059,14.5,3.624v9.059l-10.872,1.812,5.436,10.871,14.495,7.248,14.5,1.812,9.059-7.248v-9.059h7.247l3.624,9.059v10.871l-3.624,5.436v10.871l5.436,23.554,25.366,48.921,21.743,39.861,10.871,28.99v21.743l18.119,10.871,18.119-10.871,7.248-18.119,5.436-23.555V927.56l5.436-12.683V902.193l-9.059-10.871,12.683-23.554,16.307-7.248,10.872-14.495,19.931-7.248,3.624-16.307,16.307-7.247,10.872-16.307,10.871-12.683L1567,778.985l12.683,28.99,19.931,9.059,16.307,28.99v14.5l9.059,12.683,12.683,1.812,10.871-5.436,12.683-1.812,3.624,21.743,12.683,23.554v48.921l-5.436,18.119,5.436,12.683,19.931,7.247,14.5,32.614,7.248,32.614,16.307,16.307,28.99,12.683,5.436-9.059-5.436-16.307-9.059-28.99-9.059-12.683-19.931-18.119-16.307-7.248-5.436-12.683-10.871-19.931,1.812-21.743L1704.7,933l-7.247-19.931h14.5l12.683,14.5,18.119,14.495L1750,954.738l12.683,9.059,9.059-3.624,5.436,12.683-7.247,9.059,12.683,7.248,9.059-10.871,7.248-10.871,18.119-7.247,14.495-19.931V904.005l-10.871-19.931-19.931-30.8-18.119-16.307-10.872-21.743,10.872-21.743,27.178-7.248,10.872,5.436,7.247,14.495,16.307-18.119,23.554-10.871,27.178-1.812,21.743-12.683,18.119-23.554,12.683-36.238,10.872-39.861-18.119-5.436-5.436-7.248,9.059-3.624V635.847l-12.683-9.059-9.059-5.436-9.06-21.743-23.554-14.495,9.059-14.5,18.119-10.871,7.247-10.871-12.683-7.248h-18.119l-10.872,3.624-18.119-10.871L1853.273,521.7l14.495-9.059,9.059-16.307,14.5-5.436,7.248,21.743,7.247,9.059,16.307-3.624,14.5-1.812,9.059,10.871,5.436,18.119h14.5l21.742,19.931,9.06,30.8,30.8-14.5-3.624-19.931-19.931-21.743-21.743-14.5-7.248-14.495,12.683-3.624,5.436-14.5-3.624-10.871,9.059-10.871,5.436-10.871,14.5,5.436,14.5-5.436,10.871-27.178V367.688l-14.495-19.931-10.871-18.119-18.119-12.683L1980.1,306.084H1963.8l-3.624,3.624-32.614-12.683,9.059-30.8,10.871-18.119,10.872-10.871h38.049l23.554-7.248,21.743,5.436,19.931,1.812,9.06-7.248V208.243l3.624-10.871h16.307L2116,210.055h9.06l3.624-18.119h10.871l10.872,18.119-10.872,10.871v19.931l-9.059,16.307,5.436,23.554,10.872,18.119,21.742,12.683,14.5,9.059,18.119,25.366h14.5l12.683-5.436-9.06-10.871V313.332l-1.812-12.683,10.871-7.248-10.871-16.307-3.624-16.307-21.742-10.871-16.307-12.683-3.624-14.5,21.743-5.436,25.366-7.248,10.872,7.248,14.5-3.624,9.06-14.5,10.871-9.059h16.307l7.247,5.436,5.436-10.871-12.683-9.059-18.119-5.436h-16.307l-3.624-14.5h18.119l-10.871-12.683h16.307l21.742,9.059,21.743,5.436,23.554,7.248,9.06-10.871ZM675.55,226.361l-9.059,7.248-10.871,5.436-10.871-3.624L623.005,231.8h-9.059l1.812,10.871,9.059,7.248,1.812,9.059L613.946,262.6c-1.812,0-7.247-5.436-7.247-5.436H595.827l-9.059,9.059,7.247,16.307-5.436,7.248-14.5,9.059-18.119,1.812-21.742,1.812-14.5,5.436s-9.059,0-10.871-1.812a26.064,26.064,0,0,0-5.436-3.624l-14.5,5.436-16.307-7.248,10.871-5.436,9.059-5.436,5.436-10.871,14.5,3.624,16.307-7.247,7.248-12.683,12.683-19.931L561.4,231.8V217.3l-12.683-10.871-3.624-18.119,21.743-14.5,10.871-9.059,9.059-14.5,21.742-10.871,5.436,9.059v12.683l-9.059,3.624-5.436,16.307-7.248,9.059,1.812,12.683,9.059,7.248,16.307,10.871h12.683l14.5-5.436L652,210.054h12.683l5.436,3.624H682.8v12.683Zm183,269.97-14.5,5.436H827.748l-21.742-1.812L780.639,490.9,758.9,487.272,742.589,490.9l-18.119,7.247-21.742-5.436-10.871-10.871,1.812-18.119,12.683-23.554,9.059-18.119,21.743-3.624,5.436,5.436,10.871,5.436-3.624,10.871,7.247,9.059,23.555-1.812,14.5-14.5L784.263,431.1l-7.248-9.059,14.5-10.871h23.555l-3.624,18.119-3.624,10.871,10.871,14.5,30.8,14.5,9.059,12.683v14.5Zm173.941,61.6-18.119,7.248-18.119-1.812L970.887,552.5l-3.624-14.5,1.812-21.743-1.812-16.307-12.683-14.5-9.059-10.871-9.059-12.683-9.059-7.248v-14.5l36.238-18.119,12.683-7.248,12.683,7.248,10.871,7.247,3.624,9.059-18.119,3.624-10.871,9.059v16.307l12.683,10.871,10.871,9.059,12.683,7.248,9.059,3.624,5.436,5.436-1.812,9.059-14.495,1.812,7.247,16.307,18.119,19.931Z" transform="translate(1515.016 59.916)"/>
    <path id="Path_19138" data-name="Path 19138" class="cls-2" d="M171.659,57.2l-5.436,10.871L162.6,75.319l3.624,16.307v12.683l9.059,9.059s7.248-5.436,9.059-5.436l14.5-9.059-3.624-16.307-9.059-12.683Z" transform="translate(2783.52 979.196)"/>
    <path id="Path_19139" data-name="Path 19139" class="cls-2" d="M137.324,74.9,133.7,83.959l10.871,5.435,5.436-5.435V76.712Z" transform="translate(2288.786 1282.2)"/>
    <path id="Path_19140" data-name="Path 19140" class="cls-2" d="M142.148,77.412,134.9,82.848l3.624,3.624,9.059,1.812L153.019,75.6Z" transform="translate(2309.329 1294.183)"/>
    <path id="Path_19141" data-name="Path 19141" class="cls-2" d="M226.106,75.3V93.419L213.423,106.1,200.74,113.35l-10.871,14.495L179,131.468l-18.119,9.059-5.436,14.5,1.812,25.366,7.247,14.5-9.059,9.059-16.307,18.119-5.436,30.8,21.742,23.555,14.5,1.812,25.367-9.059,10.871-21.742,1.812-18.119,9.059-19.931,9.059-25.366,7.247-28.99,9.059-28.99V98.854L240.6,80.736Z" transform="translate(2288.786 1289.047)"/>
    <path id="Path_19142" data-name="Path 19142" class="cls-2" d="M207.907,44l-14.5,9.059L191.6,72.99l12.683,18.119,10.871-3.624V74.8l9.059-10.871-5.436-14.495Z" transform="translate(3279.966 753.228)"/>
    <path id="Path_19143" data-name="Path 19143" class="cls-2" d="M218.955,38.919,206.272,20.8H195.4l7.248,14.5,14.5,18.119s10.871,14.5,10.871,16.307,10.872,10.871,10.872,10.871l5.436,14.5L257,120.453l9.059,7.247h10.871l1.812-9.059-12.683-14.5L253.381,93.275l9.059-3.624V78.78L246.133,66.1,228.015,53.414Z" transform="translate(3345.017 356.071)"/>
    <path id="Path_19144" data-name="Path 19144" class="cls-2" d="M217.719,36.359,208.659,27.3,199.6,30.924l9.059,14.5L205.035,58.1l3.624,18.119,9.059,10.871h5.435V70.785L234.026,72.6l12.683,5.436,7.248-1.812,3.624-12.683h9.059l-1.812-7.248-14.5-10.871-16.307-1.812Z" transform="translate(3416.917 467.344)"/>
    <path id="Path_19145" data-name="Path 19145" class="cls-2" d="M282.358,31H271.487l-9.059,3.624,12.683,19.931V70.861l-1.812,14.5L255.18,92.6,242.5,105.287,228,110.723H217.131l-9.059,10.871L197.2,123.406l1.812,7.248,16.307,3.624,10.872-7.248h18.119l10.871,16.307h10.871l5.436-16.307,10.871-3.624,14.5-1.812,10.871-12.683V92.6L300.477,76.3l5.436-7.248-5.436-16.307L289.606,34.624Z" transform="translate(3375.831 530.683)"/>
    <path id="Path_19146" data-name="Path 19146" class="cls-2" d="M196.5,44.248,201.936,37h12.683l10.871,7.248,5.435,10.871v14.5l-9.059,7.248-7.247-3.624V64.178l-5.436-9.059Z" transform="translate(3363.848 633.396)"/>
    <path id="Path_19147" data-name="Path 19147" class="cls-2" d="M214.707,56.631l5.436-10.871V36.7H207.459L198.4,42.136l5.436,10.871Z" transform="translate(3396.374 628.261)"/>
    <path id="Path_19148" data-name="Path 19148" class="cls-2" d="M188.936,55.748l14.5-7.248h9.059V59.371l-5.436,9.059-12.683,7.248L183.5,62.995Z" transform="translate(3141.303 830.263)"/>
    <path id="Path_19149" data-name="Path 19149" class="cls-2" d="M207,49.7l21.743,7.248,3.624,18.119L228.738,87.75v16.307s7.247,9.059,9.059,9.059,14.5,3.624,14.5,3.624l9.059,14.5v9.059l-14.5-3.624-14.5,1.812-21.743-18.119L207,111.3l-12.683-10.871L192.5,84.126l9.059-9.059,1.812-23.554H207Z" transform="translate(3295.373 850.805)"/>
    <path id="Path_19150" data-name="Path 19150" class="cls-2" d="M222.2,55.9,195.024,74.019l-3.624,14.5v7.247l18.119-3.624L222.2,75.831Z" transform="translate(3276.542 956.942)"/>
    <path id="Path_19151" data-name="Path 19151" class="cls-2" d="M201.548,55.2H214.23V67.883L208.8,75.131l-9.059-3.624L194.3,66.071Z" transform="translate(3326.187 944.959)"/>
    <path id="Path_19152" data-name="Path 19152" class="cls-2" d="M196.6,54.8V69.3l10.871,3.624,10.872,3.624,5.436-1.812V63.859l-12.683-7.247Z" transform="translate(3365.56 938.111)"/>
    <path id="Path_19153" data-name="Path 19153" class="cls-2" d="M200.336,65.559l7.248-9.059,9.059,9.059-1.812,9.059-7.248,3.624L194.9,72.807Z" transform="translate(3336.458 967.213)"/>
    <path id="Path_19154" data-name="Path 19154" class="cls-2" d="M196.2,56h12.683l3.624,5.436,5.435,9.059-10.871,3.624-7.248-9.059Z" transform="translate(3358.712 958.654)"/>
    <path id="Path_19155" data-name="Path 19155" class="cls-2" d="M244.121,57l10.872,12.683V87.8l3.623,12.683-7.247,7.247L240.5,114.98l-5.436,5.436-16.307-9.059L213.319,95.05l-1.812-3.624-5.436,3.624L195.2,93.238l3.623-10.871,9.059-5.436,12.684,5.436,7.247-9.059,7.247-5.436Z" transform="translate(3341.593 975.773)"/>
    <path id="Path_19156" data-name="Path 19156" class="cls-2" d="M211.683,62.9H227.99l-7.248,12.683v14.5h3.624l-3.624,14.495-5.436,5.436L199,102.761l5.436-10.871V75.583Z" transform="translate(3406.645 1076.774)"/>
    <path id="Path_19157" data-name="Path 19157" class="cls-2" d="M199.8,74.448,217.919,67.2v9.059H228.79l3.624,10.871h-9.059l-10.872,7.247L199.8,83.507Z" transform="translate(3420.34 1150.385)"/>
    <path id="Path_19158" data-name="Path 19158" class="cls-2" d="M174.7,60.4l10.871,28.99,25.366,21.743,10.871,19.931,18.119,27.178,9.059,16.307L261.671,198.1l18.119,23.555s19.931,12.683,21.742,12.683S319.65,223.47,319.65,223.47l5.436-21.743L312.4,172.737l-23.554-14.5-5.436-16.307L258.047,122l-12.683-7.248L229.057,94.826l-10.872-14.5L194.631,62.212Z" transform="translate(2990.658 1033.977)"/>
    <path id="Path_19159" data-name="Path 19159" class="cls-2" d="M193.471,70.4,182.6,81.271l3.624,7.248L213.4,95.766s18.119-5.436,19.931-5.436S244.2,95.766,244.2,95.766l21.743,9.059h18.119l21.743,5.436,10.871-5.436-3.624-12.683-16.307-1.812L278.63,79.46l-12.683-3.624-27.178,5.436L227.9,75.836l-10.872-3.624H193.471Z" transform="translate(3125.896 1205.165)"/>
    <path id="Path_19160" data-name="Path 19160" class="cls-2" d="M190.9,82.871V72h19.931L221.7,77.436v5.435L209.019,86.5,205.4,91.931Z" transform="translate(3267.982 1232.555)"/>
    <path id="Path_19161" data-name="Path 19161" class="cls-2" d="M192.6,80.148l9.059-7.248,10.871,3.624,3.624,9.059-5.436,7.248-9.059-9.059Z" transform="translate(3297.085 1247.962)"/>
    <path id="Path_19162" data-name="Path 19162" class="cls-2" d="M193.5,72h19.931L224.3,75.624l5.436,3.624L224.3,88.307H208l-10.871-5.436Z" transform="translate(3312.492 1232.555)"/>
    <path id="Path_19163" data-name="Path 19163" class="cls-2" d="M196,104.814l9.059-19.931,9.059-9.059L230.426,72.2l14.5,1.812,9.059,5.435-9.059,5.436h-14.5L215.931,95.755l-9.059,9.059Z" transform="translate(3355.288 1235.979)"/>
    <path id="Path_19164" data-name="Path 19164" class="cls-2" d="M228.838,67.224,210.719,78.095l-1.812,19.931-7.248,25.366-9.059,14.5,9.059,19.931L198.036,170.5l10.872,9.059,12.683-7.248-7.247-12.683,1.812-18.119,16.307,7.248V159.63l12.683,5.436s7.247-14.5,5.436-16.307c0-1.812-7.248-16.307-7.248-16.307l-1.812-12.683,9.059-5.436,7.247-7.248V99.837h-14.5l-7.247,5.436c-1.812,0-14.5-1.812-14.5-1.812l-1.812-7.248,7.248-10.871,12.683-1.812,9.059,3.624,9.059,5.436,19.931-9.059L288.63,72.659,285.006,63.6H265.075l-3.624,10.871H254.2l-14.5-7.248C239.709,70.847,228.838,67.224,228.838,67.224Z" transform="translate(3297.085 1088.757)"/>
    <path id="Path_19165" data-name="Path 19165" class="cls-2" d="M289.989,70.371,299.048,59.5l19.931,5.436,5.436,16.307-5.436,18.119-5.436,9.059s9.059,14.495,9.059,16.307,1.812,12.683,1.812,12.683l-14.5,16.307L306.3,170.025l-12.683,23.555-5.436,19.931-12.683,9.059L259.187,211.7l-16.307,3.624-18.119-7.248H208.455l-12.683-19.931L184.9,151.906l9.059-12.683,18.119,5.436,9.059-14.5,12.683-16.307,18.119-10.871,3.624-10.871,21.743-9.059Z" transform="translate(3165.27 1018.57)"/>
    <path id="Path_19166" data-name="Path 19166" class="cls-2" d="M204.012,76.371,229.378,65.5l14.5,10.871,9.059,25.366L271.052,96.3,298.23,83.619l14.5,7.248,30.8,10.871,38.05,18.119,25.366,10.871,16.307,14.5v19.931l19.931,34.426L461.3,210.451l18.119,16.307L461.3,232.193l-28.99-12.683-23.554-19.931-16.307-16.307H372.517l-5.436,10.871-25.366,5.436-16.307-5.436-9.059-7.248H298.23l-10.871-3.624,14.5-18.119-3.624-19.931L276.487,132.54l-32.614-12.683-21.743-7.248-1.812-12.683,7.248-3.624L214.883,83.619H202.2Z" transform="translate(3461.425 1121.283)"/>
    <path id="Path_19167" data-name="Path 19167" class="cls-2" d="M218,99.3l28.99,5.435,12.683,12.683-12.683,9.059L223.431,137.35H203.5l5.436-18.119Z" transform="translate(3483.68 1699.899)"/>
    <path id="Path_19168" data-name="Path 19168" class="cls-2" d="M363.264,163.382l-18.119-3.624-18.119,25.366L310.72,203.244l-28.99,3.624L247.3,214.115l-27.178,21.743s-14.5,12.683-14.5,19.931v125.02s-5.436,21.742-7.248,23.555S185.7,426.1,185.7,426.1l12.683,10.871,43.485-5.436L281.73,426.1l28.99-12.683,39.861-16.307,30.8-9.059h27.178l23.554,7.248,19.931,41.673L468.354,426.1l12.683-10.871,10.872-7.248s3.624,12.683,0,14.5c-3.624,0-18.119,9.059-18.119,9.059l5.436,9.059,14.5-5.436v9.06l7.248,10.871-14.5,10.871,14.5,12.683,14.5,7.248h23.554l18.119,9.059,16.307-9.059,21.743-1.812,21.743,1.812,9.059-21.742,27.178-21.743s9.059-14.5,10.871-18.119,12.683-16.307,12.683-16.307l21.743-18.119,27.178-38.049,7.247-28.99V286.59l-32.614-56.168-30.8-56.168,3.624-14.5v-14.5l-5.436-18.119-18.119-28.99-3.624-18.119L633.234,74.6,620.552,89.1l-1.812,21.742-3.623,27.178L593.373,161.57l-25.366-7.248-25.366-14.5-12.683-25.366,16.307-21.743-14.5-12.683-38.05,1.812-30.8,18.119-9.059,21.743-10.871,9.059-19.931-7.248-14.5-10.871L388.63,123.521l-3.623,10.871-5.436,9.059-18.119,5.436Z" transform="translate(3178.965 1277.064)"/>
  </g>
</svg>
