<svg xmlns="http://www.w3.org/2000/svg" viewBox="0 0 312.673 180.976">
  <defs>
    <style>
      .cls-1 {
        opacity: 0.2;
      }

      .cls-2 {
        fill: #8d8d8d;
      }

      .cls-3 {
        fill: #fff;
      }

      .cls-4 {
        fill: #dbdbdb;
      }

      .cls-5 {
        opacity: 0.5;
      }
    </style>
  </defs>
  <g id="Group_2379" data-name="Group 2379" transform="translate(-801.327 -4713)">
    <g id="Group_2351" data-name="Group 2351" class="cls-1" transform="translate(0 20)">
      <path id="XMLID_3_" class="cls-2" d="M111.194,20.3,35.4,64.386v22.8l75.577-43.652Z" transform="translate(1002.806 4716.786)"/>
      <path id="XMLID_2_" class="cls-3" d="M152.673,44.086,76.88,88.173,0,43.435,76.228,0Z" transform="translate(961.327 4693)"/>
      <path id="XMLID_1_" class="cls-4" d="M0,20,76.88,64.738v22.8L0,43.455Z" transform="translate(961.327 4716.435)"/>
    </g>
    <g id="Group_2352" data-name="Group 2352" transform="translate(0 20)">
      <path id="XMLID_3_2" data-name="XMLID_3_" class="cls-2" d="M111.194,20.3,35.4,64.386v22.8l75.577-43.652Z" transform="translate(842.806 4716.786)"/>
      <path id="XMLID_2_2" data-name="XMLID_2_" class="cls-3" d="M152.673,44.086,76.88,88.173,0,43.435,76.228,0Z" transform="translate(801.327 4693)"/>
      <path id="XMLID_1_2" data-name="XMLID_1_" class="cls-4" d="M0,20,76.88,64.738v22.8L0,43.455Z" transform="translate(801.327 4716.435)"/>
    </g>
    <g id="Group_2353" data-name="Group 2353" class="cls-5" transform="translate(0 20)">
      <path id="XMLID_3_3" data-name="XMLID_3_" class="cls-2" d="M111.194,20.3,35.4,64.386v22.8l75.577-43.652Z" transform="translate(922.806 4786.786)"/>
      <path id="XMLID_2_3" data-name="XMLID_2_" class="cls-3" d="M152.673,44.086,76.88,88.173,0,43.435,76.228,0Z" transform="translate(881.327 4763)"/>
      <path id="XMLID_1_3" data-name="XMLID_1_" class="cls-4" d="M0,20,76.88,64.738v22.8L0,43.455Z" transform="translate(881.327 4786.435)"/>
    </g>
  </g>
</svg>
